<?xml version="1.0" encoding="us-ascii" standalone="no"?><svg xmlns="http://www.w3.org/2000/svg" xmlns:xlink="http://www.w3.org/1999/xlink" contentStyleType="text/css" height="1437.5px" preserveAspectRatio="none" style="width:870px;height:1437px;background:#FFFFFF;" version="1.1" viewBox="0 0 870 1437" width="870.3125px" zoomAndPan="magnify"><defs/><g><line style="stroke:#333333;stroke-width:0.78125;" x1="15.625" x2="15.625" y1="15.625" y2="1389.8437"/><line style="stroke:#333333;stroke-width:0.78125;" x1="850" x2="850" y1="15.625" y2="1389.8437"/><rect fill="#FFFF00" height="1374.2187" style="stroke:none;stroke-width:1.5625;" width="625" x="139.0625" y="15.625"/><line style="stroke:#333333;stroke-width:0.78125;stroke-dasharray:3.0,5.0;" x1="60.9375" x2="60.9375" y1="15.625" y2="1389.8437"/><line style="stroke:#333333;stroke-width:0.78125;stroke-dasharray:3.0,5.0;" x1="139.0625" x2="139.0625" y1="15.625" y2="1389.8437"/><line style="stroke:#333333;stroke-width:0.78125;stroke-dasharray:3.0,5.0;" x1="217.1875" x2="217.1875" y1="15.625" y2="1389.8437"/><line style="stroke:#333333;stroke-width:0.78125;stroke-dasharray:3.0,5.0;" x1="295.3125" x2="295.3125" y1="15.625" y2="1389.8437"/><line style="stroke:#333333;stroke-width:0.78125;stroke-dasharray:3.0,5.0;" x1="373.4375" x2="373.4375" y1="15.625" y2="1389.8437"/><line style="stroke:#333333;stroke-width:0.78125;stroke-dasharray:3.0,5.0;" x1="451.5625" x2="451.5625" y1="15.625" y2="1389.8437"/><line style="stroke:#333333;stroke-width:0.78125;stroke-dasharray:3.0,5.0;" x1="529.6875" x2="529.6875" y1="15.625" y2="1389.8437"/><line style="stroke:#333333;stroke-width:0.78125;stroke-dasharray:3.0,5.0;" x1="607.8125" x2="607.8125" y1="15.625" y2="1389.8437"/><line style="stroke:#333333;stroke-width:0.78125;stroke-dasharray:3.0,5.0;" x1="685.9375" x2="685.9375" y1="15.625" y2="1389.8437"/><line style="stroke:#333333;stroke-width:0.78125;stroke-dasharray:3.0,5.0;" x1="764.0625" x2="764.0625" y1="15.625" y2="1389.8437"/><line style="stroke:#333333;stroke-width:0.78125;stroke-dasharray:3.0,5.0;" x1="842.1875" x2="842.1875" y1="15.625" y2="1389.8437"/><line style="stroke:#333333;stroke-width:0.78125;" x1="15.625" x2="850" y1="15.625" y2="15.625"/><text fill="#333333" font-family="Iosevka Curly" font-size="21.875" font-weight="bold" lengthAdjust="spacing" textLength="43.75" x="23.4375" y="38.2656">COM1</text><line style="stroke:#333333;stroke-width:0.78125;" x1="15.625" x2="68.75" y1="44.5312" y2="44.5312"/><line style="stroke:#333333;stroke-width:0.78125;" x1="68.75" x2="84.375" y1="44.5312" y2="15.625"/><text fill="#333333" font-family="Iosevka Curly" font-size="18.75" lengthAdjust="spacing" textLength="9.375" x="51.5625" y="124.0937">0</text><text fill="#333333" font-family="Iosevka Curly" font-size="18.75" lengthAdjust="spacing" textLength="37.5" x="23.4375" y="92.8437">+V/2</text><text fill="#333333" font-family="Iosevka Curly" font-size="18.75" lengthAdjust="spacing" textLength="18.75" x="42.1875" y="61.5937">+V</text><line style="stroke:#2563EB;stroke-width:3.125;" x1="60.9375" x2="139.0625" y1="83.5937" y2="83.5937"/><line style="stroke:#2563EB;stroke-width:3.125;" x1="139.0625" x2="217.1875" y1="52.3437" y2="52.3437"/><line style="stroke:#2563EB;stroke-width:3.125;" x1="217.1875" x2="295.3125" y1="114.8437" y2="114.8437"/><line style="stroke:#2563EB;stroke-width:3.125;" x1="295.3125" x2="373.4375" y1="83.5937" y2="83.5937"/><line style="stroke:#2563EB;stroke-width:3.125;" x1="373.4375" x2="451.5625" y1="83.5937" y2="83.5937"/><line style="stroke:#2563EB;stroke-width:3.125;" x1="451.5625" x2="529.6875" y1="83.5937" y2="83.5937"/><line style="stroke:#2563EB;stroke-width:3.125;" x1="529.6875" x2="607.8125" y1="83.5937" y2="83.5937"/><line style="stroke:#2563EB;stroke-width:3.125;" x1="607.8125" x2="685.9375" y1="83.5937" y2="83.5937"/><line style="stroke:#2563EB;stroke-width:3.125;" x1="685.9375" x2="764.0625" y1="83.5937" y2="83.5937"/><line style="stroke:#2563EB;stroke-width:3.125;" x1="764.0625" x2="842.1875" y1="52.3437" y2="52.3437"/><line style="stroke:#2563EB;stroke-width:3.125;" x1="139.0625" x2="139.0625" y1="52.3437" y2="83.5937"/><line style="stroke:#2563EB;stroke-width:3.125;" x1="217.1875" x2="217.1875" y1="52.3437" y2="114.8437"/><line style="stroke:#2563EB;stroke-width:3.125;" x1="295.3125" x2="295.3125" y1="83.5937" y2="114.8437"/><line style="stroke:#2563EB;stroke-width:3.125;" x1="373.4375" x2="373.4375" y1="83.5937" y2="83.5937"/><line style="stroke:#2563EB;stroke-width:3.125;" x1="451.5625" x2="451.5625" y1="83.5937" y2="83.5937"/><line style="stroke:#2563EB;stroke-width:3.125;" x1="529.6875" x2="529.6875" y1="83.5937" y2="83.5937"/><line style="stroke:#2563EB;stroke-width:3.125;" x1="607.8125" x2="607.8125" y1="83.5937" y2="83.5937"/><line style="stroke:#2563EB;stroke-width:3.125;" x1="685.9375" x2="685.9375" y1="83.5937" y2="83.5937"/><line style="stroke:#2563EB;stroke-width:3.125;" x1="764.0625" x2="764.0625" y1="52.3437" y2="83.5937"/><line style="stroke:#333333;stroke-width:0.78125;" x1="15.625" x2="850" y1="133.5937" y2="133.5937"/><text fill="#333333" font-family="Iosevka Curly" font-size="21.875" font-weight="bold" lengthAdjust="spacing" textLength="43.75" x="23.4375" y="156.2344">COM2</text><line style="stroke:#333333;stroke-width:0.78125;" x1="15.625" x2="68.75" y1="162.5" y2="162.5"/><line style="stroke:#333333;stroke-width:0.78125;" x1="68.75" x2="84.375" y1="162.5" y2="133.5937"/><text fill="#333333" font-family="Iosevka Curly" font-size="18.75" lengthAdjust="spacing" textLength="9.375" x="51.5625" y="242.0625">0</text><text fill="#333333" font-family="Iosevka Curly" font-size="18.75" lengthAdjust="spacing" textLength="37.5" x="23.4375" y="210.8125">+V/2</text><text fill="#333333" font-family="Iosevka Curly" font-size="18.75" lengthAdjust="spacing" textLength="18.75" x="42.1875" y="179.5625">+V</text><line style="stroke:#2563EB;stroke-width:3.125;" x1="60.9375" x2="139.0625" y1="201.5625" y2="201.5625"/><line style="stroke:#2563EB;stroke-width:3.125;" x1="139.0625" x2="217.1875" y1="201.5625" y2="201.5625"/><line style="stroke:#2563EB;stroke-width:3.125;" x1="217.1875" x2="295.3125" y1="201.5625" y2="201.5625"/><line style="stroke:#2563EB;stroke-width:3.125;" x1="295.3125" x2="373.4375" y1="170.3125" y2="170.3125"/><line style="stroke:#2563EB;stroke-width:3.125;" x1="373.4375" x2="451.5625" y1="232.8125" y2="232.8125"/><line style="stroke:#2563EB;stroke-width:3.125;" x1="451.5625" x2="529.6875" y1="201.5625" y2="201.5625"/><line style="stroke:#2563EB;stroke-width:3.125;" x1="529.6875" x2="607.8125" y1="201.5625" y2="201.5625"/><line style="stroke:#2563EB;stroke-width:3.125;" x1="607.8125" x2="685.9375" y1="201.5625" y2="201.5625"/><line style="stroke:#2563EB;stroke-width:3.125;" x1="685.9375" x2="764.0625" y1="201.5625" y2="201.5625"/><line style="stroke:#2563EB;stroke-width:3.125;" x1="764.0625" x2="842.1875" y1="201.5625" y2="201.5625"/><line style="stroke:#2563EB;stroke-width:3.125;" x1="139.0625" x2="139.0625" y1="201.5625" y2="201.5625"/><line style="stroke:#2563EB;stroke-width:3.125;" x1="217.1875" x2="217.1875" y1="201.5625" y2="201.5625"/><line style="stroke:#2563EB;stroke-width:3.125;" x1="295.3125" x2="295.3125" y1="170.3125" y2="201.5625"/><line style="stroke:#2563EB;stroke-width:3.125;" x1="373.4375" x2="373.4375" y1="170.3125" y2="232.8125"/><line style="stroke:#2563EB;stroke-width:3.125;" x1="451.5625" x2="451.5625" y1="201.5625" y2="232.8125"/><line style="stroke:#2563EB;stroke-width:3.125;" x1="529.6875" x2="529.6875" y1="201.5625" y2="201.5625"/><line style="stroke:#2563EB;stroke-width:3.125;" x1="607.8125" x2="607.8125" y1="201.5625" y2="201.5625"/><line style="stroke:#2563EB;stroke-width:3.125;" x1="685.9375" x2="685.9375" y1="201.5625" y2="201.5625"/><line style="stroke:#2563EB;stroke-width:3.125;" x1="764.0625" x2="764.0625" y1="201.5625" y2="201.5625"/><line style="stroke:#333333;stroke-width:0.78125;" x1="15.625" x2="850" y1="251.5625" y2="251.5625"/><text fill="#333333" font-family="Iosevka Curly" font-size="21.875" font-weight="bold" lengthAdjust="spacing" textLength="43.75" x="23.4375" y="274.2031">COM3</text><line style="stroke:#333333;stroke-width:0.78125;" x1="15.625" x2="68.75" y1="280.4687" y2="280.4687"/><line style="stroke:#333333;stroke-width:0.78125;" x1="68.75" x2="84.375" y1="280.4687" y2="251.5625"/><text fill="#333333" font-family="Iosevka Curly" font-size="18.75" lengthAdjust="spacing" textLength="9.375" x="51.5625" y="360.0312">0</text><text fill="#333333" font-family="Iosevka Curly" font-size="18.75" lengthAdjust="spacing" textLength="37.5" x="23.4375" y="328.7812">+V/2</text><text fill="#333333" font-family="Iosevka Curly" font-size="18.75" lengthAdjust="spacing" textLength="18.75" x="42.1875" y="297.5312">+V</text><line style="stroke:#2563EB;stroke-width:3.125;" x1="60.9375" x2="139.0625" y1="319.5312" y2="319.5312"/><line style="stroke:#2563EB;stroke-width:3.125;" x1="139.0625" x2="217.1875" y1="319.5312" y2="319.5312"/><line style="stroke:#2563EB;stroke-width:3.125;" x1="217.1875" x2="295.3125" y1="319.5312" y2="319.5312"/><line style="stroke:#2563EB;stroke-width:3.125;" x1="295.3125" x2="373.4375" y1="319.5312" y2="319.5312"/><line style="stroke:#2563EB;stroke-width:3.125;" x1="373.4375" x2="451.5625" y1="319.5312" y2="319.5312"/><line style="stroke:#2563EB;stroke-width:3.125;" x1="451.5625" x2="529.6875" y1="288.2812" y2="288.2812"/><line style="stroke:#2563EB;stroke-width:3.125;" x1="529.6875" x2="607.8125" y1="350.7812" y2="350.7812"/><line style="stroke:#2563EB;stroke-width:3.125;" x1="607.8125" x2="685.9375" y1="319.5312" y2="319.5312"/><line style="stroke:#2563EB;stroke-width:3.125;" x1="685.9375" x2="764.0625" y1="319.5312" y2="319.5312"/><line style="stroke:#2563EB;stroke-width:3.125;" x1="764.0625" x2="842.1875" y1="319.5312" y2="319.5312"/><line style="stroke:#2563EB;stroke-width:3.125;" x1="139.0625" x2="139.0625" y1="319.5312" y2="319.5312"/><line style="stroke:#2563EB;stroke-width:3.125;" x1="217.1875" x2="217.1875" y1="319.5312" y2="319.5312"/><line style="stroke:#2563EB;stroke-width:3.125;" x1="295.3125" x2="295.3125" y1="319.5312" y2="319.5312"/><line style="stroke:#2563EB;stroke-width:3.125;" x1="373.4375" x2="373.4375" y1="319.5312" y2="319.5312"/><line style="stroke:#2563EB;stroke-width:3.125;" x1="451.5625" x2="451.5625" y1="288.2812" y2="319.5312"/><line style="stroke:#2563EB;stroke-width:3.125;" x1="529.6875" x2="529.6875" y1="288.2812" y2="350.7812"/><line style="stroke:#2563EB;stroke-width:3.125;" x1="607.8125" x2="607.8125" y1="319.5312" y2="350.7812"/><line style="stroke:#2563EB;stroke-width:3.125;" x1="685.9375" x2="685.9375" y1="319.5312" y2="319.5312"/><line style="stroke:#2563EB;stroke-width:3.125;" x1="764.0625" x2="764.0625" y1="319.5312" y2="319.5312"/><line style="stroke:#333333;stroke-width:0.78125;" x1="15.625" x2="850" y1="369.5312" y2="369.5312"/><text fill="#333333" font-family="Iosevka Curly" font-size="21.875" font-weight="bold" lengthAdjust="spacing" textLength="43.75" x="23.4375" y="392.1719">COM4</text><line style="stroke:#333333;stroke-width:0.78125;" x1="15.625" x2="68.75" y1="398.4375" y2="398.4375"/><line style="stroke:#333333;stroke-width:0.78125;" x1="68.75" x2="84.375" y1="398.4375" y2="369.5312"/><text fill="#333333" font-family="Iosevka Curly" font-size="18.75" lengthAdjust="spacing" textLength="9.375" x="51.5625" y="478">0</text><text fill="#333333" font-family="Iosevka Curly" font-size="18.75" lengthAdjust="spacing" textLength="37.5" x="23.4375" y="446.75">+V/2</text><text fill="#333333" font-family="Iosevka Curly" font-size="18.75" lengthAdjust="spacing" textLength="18.75" x="42.1875" y="415.5">+V</text><line style="stroke:#2563EB;stroke-width:3.125;" x1="60.9375" x2="139.0625" y1="437.5" y2="437.5"/><line style="stroke:#2563EB;stroke-width:3.125;" x1="139.0625" x2="217.1875" y1="437.5" y2="437.5"/><line style="stroke:#2563EB;stroke-width:3.125;" x1="217.1875" x2="295.3125" y1="437.5" y2="437.5"/><line style="stroke:#2563EB;stroke-width:3.125;" x1="295.3125" x2="373.4375" y1="437.5" y2="437.5"/><line style="stroke:#2563EB;stroke-width:3.125;" x1="373.4375" x2="451.5625" y1="437.5" y2="437.5"/><line style="stroke:#2563EB;stroke-width:3.125;" x1="451.5625" x2="529.6875" y1="437.5" y2="437.5"/><line style="stroke:#2563EB;stroke-width:3.125;" x1="529.6875" x2="607.8125" y1="437.5" y2="437.5"/><line style="stroke:#2563EB;stroke-width:3.125;" x1="607.8125" x2="685.9375" y1="406.25" y2="406.25"/><line style="stroke:#2563EB;stroke-width:3.125;" x1="685.9375" x2="764.0625" y1="468.75" y2="468.75"/><line style="stroke:#2563EB;stroke-width:3.125;" x1="764.0625" x2="842.1875" y1="437.5" y2="437.5"/><line style="stroke:#2563EB;stroke-width:3.125;" x1="139.0625" x2="139.0625" y1="437.5" y2="437.5"/><line style="stroke:#2563EB;stroke-width:3.125;" x1="217.1875" x2="217.1875" y1="437.5" y2="437.5"/><line style="stroke:#2563EB;stroke-width:3.125;" x1="295.3125" x2="295.3125" y1="437.5" y2="437.5"/><line style="stroke:#2563EB;stroke-width:3.125;" x1="373.4375" x2="373.4375" y1="437.5" y2="437.5"/><line style="stroke:#2563EB;stroke-width:3.125;" x1="451.5625" x2="451.5625" y1="437.5" y2="437.5"/><line style="stroke:#2563EB;stroke-width:3.125;" x1="529.6875" x2="529.6875" y1="437.5" y2="437.5"/><line style="stroke:#2563EB;stroke-width:3.125;" x1="607.8125" x2="607.8125" y1="406.25" y2="437.5"/><line style="stroke:#2563EB;stroke-width:3.125;" x1="685.9375" x2="685.9375" y1="406.25" y2="468.75"/><line style="stroke:#2563EB;stroke-width:3.125;" x1="764.0625" x2="764.0625" y1="437.5" y2="468.75"/><line style="stroke:#333333;stroke-width:0.78125;" x1="15.625" x2="850" y1="487.5" y2="487.5"/><text fill="#333333" font-family="Iosevka Curly" font-size="21.875" font-weight="bold" lengthAdjust="spacing" textLength="32.8125" x="23.4375" y="510.1406">SEG</text><line style="stroke:#333333;stroke-width:0.78125;" x1="15.625" x2="57.8125" y1="516.4062" y2="516.4062"/><line style="stroke:#333333;stroke-width:0.78125;" x1="57.8125" x2="73.4375" y1="516.4062" y2="487.5"/><text fill="#333333" font-family="Iosevka Curly" font-size="18.75" lengthAdjust="spacing" textLength="9.375" x="51.5625" y="627.2187">0</text><text fill="#333333" font-family="Iosevka Curly" font-size="18.75" lengthAdjust="spacing" textLength="9.375" x="23.4375" y="595.9687">&#160;</text><text fill="#333333" font-family="Iosevka Curly" font-size="18.75" lengthAdjust="spacing" textLength="18.75" x="42.1875" y="564.7187">+V</text><line style="stroke:#DC2626;stroke-width:3.125;" x1="60.9375" x2="139.0625" y1="617.9687" y2="617.9687"/><line style="stroke:#DC2626;stroke-width:3.125;" x1="139.0625" x2="217.1875" y1="617.9687" y2="617.9687"/><line style="stroke:#DC2626;stroke-width:3.125;" x1="217.1875" x2="295.3125" y1="555.4687" y2="555.4687"/><line style="stroke:#DC2626;stroke-width:3.125;" x1="295.3125" x2="373.4375" y1="555.4687" y2="555.4687"/><line style="stroke:#DC2626;stroke-width:3.125;" x1="373.4375" x2="451.5625" y1="617.9687" y2="617.9687"/><line style="stroke:#DC2626;stroke-width:3.125;" x1="451.5625" x2="529.6875" y1="555.4687" y2="555.4687"/><line style="stroke:#DC2626;stroke-width:3.125;" x1="529.6875" x2="607.8125" y1="617.9687" y2="617.9687"/><line style="stroke:#DC2626;stroke-width:3.125;" x1="607.8125" x2="685.9375" y1="555.4687" y2="555.4687"/><line style="stroke:#DC2626;stroke-width:3.125;" x1="685.9375" x2="764.0625" y1="617.9687" y2="617.9687"/><line style="stroke:#DC2626;stroke-width:3.125;" x1="764.0625" x2="842.1875" y1="555.4687" y2="555.4687"/><line style="stroke:#DC2626;stroke-width:3.125;" x1="139.0625" x2="139.0625" y1="617.9687" y2="617.9687"/><line style="stroke:#DC2626;stroke-width:3.125;" x1="217.1875" x2="217.1875" y1="555.4687" y2="617.9687"/><line style="stroke:#DC2626;stroke-width:3.125;" x1="295.3125" x2="295.3125" y1="555.4687" y2="555.4687"/><line style="stroke:#DC2626;stroke-width:3.125;" x1="373.4375" x2="373.4375" y1="555.4687" y2="617.9687"/><line style="stroke:#DC2626;stroke-width:3.125;" x1="451.5625" x2="451.5625" y1="555.4687" y2="617.9687"/><line style="stroke:#DC2626;stroke-width:3.125;" x1="529.6875" x2="529.6875" y1="555.4687" y2="617.9687"/><line style="stroke:#DC2626;stroke-width:3.125;" x1="607.8125" x2="607.8125" y1="555.4687" y2="617.9687"/><line style="stroke:#DC2626;stroke-width:3.125;" x1="685.9375" x2="685.9375" y1="555.4687" y2="617.9687"/><line style="stroke:#DC2626;stroke-width:3.125;" x1="764.0625" x2="764.0625" y1="555.4687" y2="617.9687"/><line style="stroke:#8B0000;stroke-width:2.34375;" x1="142.9688" x2="760.1563" y1="547.6562" y2="547.6562"/><polygon fill="#8B0000" points="155.4688,553.9062,155.4688,541.4062,142.9688,547.6562" style="stroke:#8B0000;stroke-width:3.125;"/><polygon fill="#8B0000" points="747.6563,553.9062,747.6563,541.4062,760.1563,547.6562" style="stroke:#8B0000;stroke-width:3.125;"/><text fill="#8B0000" font-family="Iosevka Curly" font-size="18.75" lengthAdjust="spacing" textLength="93.75" x="404.6875" y="535.8125">Full Cycle</text><line style="stroke:#333333;stroke-width:0.78125;" x1="15.625" x2="850" y1="636.7187" y2="636.7187"/><text fill="#333333" font-family="Iosevka Curly" font-size="21.875" font-weight="bold" lengthAdjust="spacing" textLength="87.5" x="23.4375" y="659.3594">SEG-COM1</text><line style="stroke:#333333;stroke-width:0.78125;" x1="15.625" x2="112.5" y1="665.625" y2="665.625"/><line style="stroke:#333333;stroke-width:0.78125;" x1="112.5" x2="128.125" y1="665.625" y2="636.7187"/><text fill="#333333" font-family="Iosevka Curly" font-size="18.75" lengthAdjust="spacing" textLength="18.75" x="42.1875" y="838.9375">-V</text><text fill="#333333" font-family="Iosevka Curly" font-size="18.75" lengthAdjust="spacing" textLength="37.5" x="23.4375" y="807.6875">-V/2</text><text fill="#333333" font-family="Iosevka Curly" font-size="18.75" lengthAdjust="spacing" textLength="9.375" x="51.5625" y="776.4375">0</text><text fill="#333333" font-family="Iosevka Curly" font-size="18.75" lengthAdjust="spacing" textLength="37.5" x="23.4375" y="745.1875">+V/2</text><text fill="#333333" font-family="Iosevka Curly" font-size="18.75" lengthAdjust="spacing" textLength="18.75" x="42.1875" y="713.9375">+V</text><line style="stroke:#EC4899;stroke-width:3.125;" x1="60.9375" x2="139.0625" y1="798.4375" y2="798.4375"/><line style="stroke:#EC4899;stroke-width:3.125;" x1="139.0625" x2="217.1875" y1="829.6875" y2="829.6875"/><line style="stroke:#EC4899;stroke-width:3.125;" x1="217.1875" x2="295.3125" y1="704.6875" y2="704.6875"/><line style="stroke:#EC4899;stroke-width:3.125;" x1="295.3125" x2="373.4375" y1="735.9375" y2="735.9375"/><line style="stroke:#EC4899;stroke-width:3.125;" x1="373.4375" x2="451.5625" y1="798.4375" y2="798.4375"/><line style="stroke:#EC4899;stroke-width:3.125;" x1="451.5625" x2="529.6875" y1="735.9375" y2="735.9375"/><line style="stroke:#EC4899;stroke-width:3.125;" x1="529.6875" x2="607.8125" y1="798.4375" y2="798.4375"/><line style="stroke:#EC4899;stroke-width:3.125;" x1="607.8125" x2="685.9375" y1="735.9375" y2="735.9375"/><line style="stroke:#EC4899;stroke-width:3.125;" x1="685.9375" x2="764.0625" y1="798.4375" y2="798.4375"/><line style="stroke:#EC4899;stroke-width:3.125;" x1="764.0625" x2="842.1875" y1="767.1875" y2="767.1875"/><line style="stroke:#EC4899;stroke-width:3.125;" x1="139.0625" x2="139.0625" y1="798.4375" y2="829.6875"/><line style="stroke:#EC4899;stroke-width:3.125;" x1="217.1875" x2="217.1875" y1="704.6875" y2="829.6875"/><line style="stroke:#EC4899;stroke-width:3.125;" x1="295.3125" x2="295.3125" y1="704.6875" y2="735.9375"/><line style="stroke:#EC4899;stroke-width:3.125;" x1="373.4375" x2="373.4375" y1="735.9375" y2="798.4375"/><line style="stroke:#EC4899;stroke-width:3.125;" x1="451.5625" x2="451.5625" y1="735.9375" y2="798.4375"/><line style="stroke:#EC4899;stroke-width:3.125;" x1="529.6875" x2="529.6875" y1="735.9375" y2="798.4375"/><line style="stroke:#EC4899;stroke-width:3.125;" x1="607.8125" x2="607.8125" y1="735.9375" y2="798.4375"/><line style="stroke:#EC4899;stroke-width:3.125;" x1="685.9375" x2="685.9375" y1="735.9375" y2="798.4375"/><line style="stroke:#EC4899;stroke-width:3.125;" x1="764.0625" x2="764.0625" y1="767.1875" y2="798.4375"/><line style="stroke:#8B0000;stroke-width:2.34375;" x1="142.9688" x2="291.4063" y1="696.875" y2="696.875"/><polygon fill="#8B0000" points="155.4688,703.125,155.4688,690.625,142.9688,696.875" style="stroke:#8B0000;stroke-width:3.125;"/><polygon fill="#8B0000" points="278.9063,703.125,278.9063,690.625,291.4063,696.875" style="stroke:#8B0000;stroke-width:3.125;"/><text fill="#8B0000" font-family="Iosevka Curly" font-size="18.75" lengthAdjust="spacing" textLength="131.25" x="151.5625" y="685.0312">Lit (1/4 Duty)</text><line style="stroke:#333333;stroke-width:0.78125;" x1="15.625" x2="850" y1="848.4375" y2="848.4375"/><text fill="#333333" font-family="Iosevka Curly" font-size="21.875" font-weight="bold" lengthAdjust="spacing" textLength="87.5" x="23.4375" y="871.0781">SEG-COM2</text><line style="stroke:#333333;stroke-width:0.78125;" x1="15.625" x2="112.5" y1="877.3437" y2="877.3437"/><line style="stroke:#333333;stroke-width:0.78125;" x1="112.5" x2="128.125" y1="877.3437" y2="848.4375"/><text fill="#333333" font-family="Iosevka Curly" font-size="18.75" lengthAdjust="spacing" textLength="18.75" x="42.1875" y="1019.4062">-V</text><text fill="#333333" font-family="Iosevka Curly" font-size="18.75" lengthAdjust="spacing" textLength="37.5" x="23.4375" y="988.1562">-V/2</text><text fill="#333333" font-family="Iosevka Curly" font-size="18.75" lengthAdjust="spacing" textLength="9.375" x="51.5625" y="956.9062">0</text><text fill="#333333" font-family="Iosevka Curly" font-size="18.75" lengthAdjust="spacing" textLength="37.5" x="23.4375" y="925.6562">+V/2</text><text fill="#333333" font-family="Iosevka Curly" font-size="18.75" lengthAdjust="spacing" textLength="18.75" x="42.1875" y="894.4062">+V</text><line style="stroke:#EC4899;stroke-width:3.125;" x1="60.9375" x2="139.0625" y1="978.9062" y2="978.9062"/><line style="stroke:#EC4899;stroke-width:3.125;" x1="139.0625" x2="217.1875" y1="978.9062" y2="978.9062"/><line style="stroke:#EC4899;stroke-width:3.125;" x1="217.1875" x2="295.3125" y1="916.4062" y2="916.4062"/><line style="stroke:#EC4899;stroke-width:3.125;" x1="295.3125" x2="373.4375" y1="947.6562" y2="947.6562"/><line style="stroke:#EC4899;stroke-width:3.125;" x1="373.4375" x2="451.5625" y1="947.6562" y2="947.6562"/><line style="stroke:#EC4899;stroke-width:3.125;" x1="451.5625" x2="529.6875" y1="916.4062" y2="916.4062"/><line style="stroke:#EC4899;stroke-width:3.125;" x1="529.6875" x2="607.8125" y1="978.9062" y2="978.9062"/><line style="stroke:#EC4899;stroke-width:3.125;" x1="607.8125" x2="685.9375" y1="916.4062" y2="916.4062"/><line style="stroke:#EC4899;stroke-width:3.125;" x1="685.9375" x2="764.0625" y1="978.9062" y2="978.9062"/><line style="stroke:#EC4899;stroke-width:3.125;" x1="764.0625" x2="842.1875" y1="916.4062" y2="916.4062"/><line style="stroke:#EC4899;stroke-width:3.125;" x1="139.0625" x2="139.0625" y1="978.9062" y2="978.9062"/><line style="stroke:#EC4899;stroke-width:3.125;" x1="217.1875" x2="217.1875" y1="916.4062" y2="978.9062"/><line style="stroke:#EC4899;stroke-width:3.125;" x1="295.3125" x2="295.3125" y1="916.4062" y2="947.6562"/><line style="stroke:#EC4899;stroke-width:3.125;" x1="373.4375" x2="373.4375" y1="947.6562" y2="947.6562"/><line style="stroke:#EC4899;stroke-width:3.125;" x1="451.5625" x2="451.5625" y1="916.4062" y2="947.6562"/><line style="stroke:#EC4899;stroke-width:3.125;" x1="529.6875" x2="529.6875" y1="916.4062" y2="978.9062"/><line style="stroke:#EC4899;stroke-width:3.125;" x1="607.8125" x2="607.8125" y1="916.4062" y2="978.9062"/><line style="stroke:#EC4899;stroke-width:3.125;" x1="685.9375" x2="685.9375" y1="916.4062" y2="978.9062"/><line style="stroke:#EC4899;stroke-width:3.125;" x1="764.0625" x2="764.0625" y1="916.4062" y2="978.9062"/><line style="stroke:#333333;stroke-width:0.78125;" x1="15.625" x2="850" y1="1028.9062" y2="1028.9062"/><text fill="#333333" font-family="Iosevka Curly" font-size="21.875" font-weight="bold" lengthAdjust="spacing" textLength="87.5" x="23.4375" y="1051.5469">SEG-COM3</text><line style="stroke:#333333;stroke-width:0.78125;" x1="15.625" x2="112.5" y1="1057.8125" y2="1057.8125"/><line style="stroke:#333333;stroke-width:0.78125;" x1="112.5" x2="128.125" y1="1057.8125" y2="1028.9062"/><text fill="#333333" font-family="Iosevka Curly" font-size="18.75" lengthAdjust="spacing" textLength="18.75" x="42.1875" y="1199.875">-V</text><text fill="#333333" font-family="Iosevka Curly" font-size="18.75" lengthAdjust="spacing" textLength="37.5" x="23.4375" y="1168.625">-V/2</text><text fill="#333333" font-family="Iosevka Curly" font-size="18.75" lengthAdjust="spacing" textLength="9.375" x="51.5625" y="1137.375">0</text><text fill="#333333" font-family="Iosevka Curly" font-size="18.75" lengthAdjust="spacing" textLength="37.5" x="23.4375" y="1106.125">+V/2</text><text fill="#333333" font-family="Iosevka Curly" font-size="18.75" lengthAdjust="spacing" textLength="18.75" x="42.1875" y="1074.875">+V</text><line style="stroke:#EC4899;stroke-width:3.125;" x1="60.9375" x2="139.0625" y1="1159.375" y2="1159.375"/><line style="stroke:#EC4899;stroke-width:3.125;" x1="139.0625" x2="217.1875" y1="1159.375" y2="1159.375"/><line style="stroke:#EC4899;stroke-width:3.125;" x1="217.1875" x2="295.3125" y1="1096.875" y2="1096.875"/><line style="stroke:#EC4899;stroke-width:3.125;" x1="295.3125" x2="373.4375" y1="1096.875" y2="1096.875"/><line style="stroke:#EC4899;stroke-width:3.125;" x1="373.4375" x2="451.5625" y1="1159.375" y2="1159.375"/><line style="stroke:#EC4899;stroke-width:3.125;" x1="451.5625" x2="529.6875" y1="1128.125" y2="1128.125"/><line style="stroke:#EC4899;stroke-width:3.125;" x1="529.6875" x2="607.8125" y1="1128.125" y2="1128.125"/><line style="stroke:#EC4899;stroke-width:3.125;" x1="607.8125" x2="685.9375" y1="1096.875" y2="1096.875"/><line style="stroke:#EC4899;stroke-width:3.125;" x1="685.9375" x2="764.0625" y1="1159.375" y2="1159.375"/><line style="stroke:#EC4899;stroke-width:3.125;" x1="764.0625" x2="842.1875" y1="1096.875" y2="1096.875"/><line style="stroke:#EC4899;stroke-width:3.125;" x1="139.0625" x2="139.0625" y1="1159.375" y2="1159.375"/><line style="stroke:#EC4899;stroke-width:3.125;" x1="217.1875" x2="217.1875" y1="1096.875" y2="1159.375"/><line style="stroke:#EC4899;stroke-width:3.125;" x1="295.3125" x2="295.3125" y1="1096.875" y2="1096.875"/><line style="stroke:#EC4899;stroke-width:3.125;" x1="373.4375" x2="373.4375" y1="1096.875" y2="1159.375"/><line style="stroke:#EC4899;stroke-width:3.125;" x1="451.5625" x2="451.5625" y1="1128.125" y2="1159.375"/><line style="stroke:#EC4899;stroke-width:3.125;" x1="529.6875" x2="529.6875" y1="1128.125" y2="1128.125"/><line style="stroke:#EC4899;stroke-width:3.125;" x1="607.8125" x2="607.8125" y1="1096.875" y2="1128.125"/><line style="stroke:#EC4899;stroke-width:3.125;" x1="685.9375" x2="685.9375" y1="1096.875" y2="1159.375"/><line style="stroke:#EC4899;stroke-width:3.125;" x1="764.0625" x2="764.0625" y1="1096.875" y2="1159.375"/><line style="stroke:#333333;stroke-width:0.78125;" x1="15.625" x2="850" y1="1209.375" y2="1209.375"/><text fill="#333333" font-family="Iosevka Curly" font-size="21.875" font-weight="bold" lengthAdjust="spacing" textLength="87.5" x="23.4375" y="1232.0156">SEG-COM4</text><line style="stroke:#333333;stroke-width:0.78125;" x1="15.625" x2="112.5" y1="1238.2812" y2="1238.2812"/><line style="stroke:#333333;stroke-width:0.78125;" x1="112.5" x2="128.125" y1="1238.2812" y2="1209.375"/><text fill="#333333" font-family="Iosevka Curly" font-size="18.75" lengthAdjust="spacing" textLength="18.75" x="42.1875" y="1380.3437">-V</text><text fill="#333333" font-family="Iosevka Curly" font-size="18.75" lengthAdjust="spacing" textLength="37.5" x="23.4375" y="1349.0937">-V/2</text><text fill="#333333" font-family="Iosevka Curly" font-size="18.75" lengthAdjust="spacing" textLength="9.375" x="51.5625" y="1317.8437">0</text><text fill="#333333" font-family="Iosevka Curly" font-size="18.75" lengthAdjust="spacing" textLength="37.5" x="23.4375" y="1286.5937">+V/2</text><text fill="#333333" font-family="Iosevka Curly" font-size="18.75" lengthAdjust="spacing" textLength="18.75" x="42.1875" y="1255.3437">+V</text><line style="stroke:#EC4899;stroke-width:3.125;" x1="60.9375" x2="139.0625" y1="1339.8437" y2="1339.8437"/><line style="stroke:#EC4899;stroke-width:3.125;" x1="139.0625" x2="217.1875" y1="1339.8437" y2="1339.8437"/><line style="stroke:#EC4899;stroke-width:3.125;" x1="217.1875" x2="295.3125" y1="1277.3437" y2="1277.3437"/><line style="stroke:#EC4899;stroke-width:3.125;" x1="295.3125" x2="373.4375" y1="1277.3437" y2="1277.3437"/><line style="stroke:#EC4899;stroke-width:3.125;" x1="373.4375" x2="451.5625" y1="1339.8437" y2="1339.8437"/><line style="stroke:#EC4899;stroke-width:3.125;" x1="451.5625" x2="529.6875" y1="1277.3437" y2="1277.3437"/><line style="stroke:#EC4899;stroke-width:3.125;" x1="529.6875" x2="607.8125" y1="1339.8437" y2="1339.8437"/><line style="stroke:#EC4899;stroke-width:3.125;" x1="607.8125" x2="685.9375" y1="1308.5937" y2="1308.5937"/><line style="stroke:#EC4899;stroke-width:3.125;" x1="685.9375" x2="764.0625" y1="1308.5937" y2="1308.5937"/><line style="stroke:#EC4899;stroke-width:3.125;" x1="764.0625" x2="842.1875" y1="1277.3437" y2="1277.3437"/><line style="stroke:#EC4899;stroke-width:3.125;" x1="139.0625" x2="139.0625" y1="1339.8437" y2="1339.8437"/><line style="stroke:#EC4899;stroke-width:3.125;" x1="217.1875" x2="217.1875" y1="1277.3437" y2="1339.8437"/><line style="stroke:#EC4899;stroke-width:3.125;" x1="295.3125" x2="295.3125" y1="1277.3437" y2="1277.3437"/><line style="stroke:#EC4899;stroke-width:3.125;" x1="373.4375" x2="373.4375" y1="1277.3437" y2="1339.8437"/><line style="stroke:#EC4899;stroke-width:3.125;" x1="451.5625" x2="451.5625" y1="1277.3437" y2="1339.8437"/><line style="stroke:#EC4899;stroke-width:3.125;" x1="529.6875" x2="529.6875" y1="1277.3437" y2="1339.8437"/><line style="stroke:#EC4899;stroke-width:3.125;" x1="607.8125" x2="607.8125" y1="1308.5937" y2="1339.8437"/><line style="stroke:#EC4899;stroke-width:3.125;" x1="685.9375" x2="685.9375" y1="1308.5937" y2="1308.5937"/><line style="stroke:#EC4899;stroke-width:3.125;" x1="764.0625" x2="764.0625" y1="1277.3437" y2="1308.5937"/><line style="stroke:#333333;stroke-width:3.125;" x1="60.9375" x2="60.9375" y1="1389.8437" y2="1397.6562"/><line style="stroke:#333333;stroke-width:3.125;" x1="139.0625" x2="139.0625" y1="1389.8437" y2="1397.6562"/><line style="stroke:#333333;stroke-width:3.125;" x1="217.1875" x2="217.1875" y1="1389.8437" y2="1397.6562"/><line style="stroke:#333333;stroke-width:3.125;" x1="295.3125" x2="295.3125" y1="1389.8437" y2="1397.6562"/><line style="stroke:#333333;stroke-width:3.125;" x1="373.4375" x2="373.4375" y1="1389.8437" y2="1397.6562"/><line style="stroke:#333333;stroke-width:3.125;" x1="451.5625" x2="451.5625" y1="1389.8437" y2="1397.6562"/><line style="stroke:#333333;stroke-width:3.125;" x1="529.6875" x2="529.6875" y1="1389.8437" y2="1397.6562"/><line style="stroke:#333333;stroke-width:3.125;" x1="607.8125" x2="607.8125" y1="1389.8437" y2="1397.6562"/><line style="stroke:#333333;stroke-width:3.125;" x1="685.9375" x2="685.9375" y1="1389.8437" y2="1397.6562"/><line style="stroke:#333333;stroke-width:3.125;" x1="764.0625" x2="764.0625" y1="1389.8437" y2="1397.6562"/><line style="stroke:#333333;stroke-width:3.125;" x1="842.1875" x2="842.1875" y1="1389.8437" y2="1397.6562"/><line style="stroke:#333333;stroke-width:3.125;" x1="60.9375" x2="842.1875" y1="1389.8437" y2="1389.8437"/><text fill="#333333" font-family="Iosevka Curly" font-size="17.1875" lengthAdjust="spacing" textLength="9.375" x="56.25" y="1417.0078">0</text><text fill="#333333" font-family="Iosevka Curly" font-size="17.1875" lengthAdjust="spacing" textLength="9.375" x="134.375" y="1417.0078">1</text><text fill="#333333" font-family="Iosevka Curly" font-size="17.1875" lengthAdjust="spacing" textLength="9.375" x="212.5" y="1417.0078">2</text><text fill="#333333" font-family="Iosevka Curly" font-size="17.1875" lengthAdjust="spacing" textLength="9.375" x="290.625" y="1417.0078">3</text><text fill="#333333" font-family="Iosevka Curly" font-size="17.1875" lengthAdjust="spacing" textLength="9.375" x="368.75" y="1417.0078">4</text><text fill="#333333" font-family="Iosevka Curly" font-size="17.1875" lengthAdjust="spacing" textLength="9.375" x="446.875" y="1417.0078">5</text><text fill="#333333" font-family="Iosevka Curly" font-size="17.1875" lengthAdjust="spacing" textLength="9.375" x="525" y="1417.0078">6</text><text fill="#333333" font-family="Iosevka Curly" font-size="17.1875" lengthAdjust="spacing" textLength="9.375" x="603.125" y="1417.0078">7</text><text fill="#333333" font-family="Iosevka Curly" font-size="17.1875" lengthAdjust="spacing" textLength="9.375" x="681.25" y="1417.0078">8</text><text fill="#333333" font-family="Iosevka Curly" font-size="17.1875" lengthAdjust="spacing" textLength="9.375" x="759.375" y="1417.0078">9</text><text fill="#333333" font-family="Iosevka Curly" font-size="17.1875" lengthAdjust="spacing" textLength="18.75" x="832.8125" y="1417.0078">10</text><line style="stroke:#FFA500;stroke-width:3.125;stroke-dasharray:4.0,4.0;" x1="139.0625" x2="139.0625" y1="15.625" y2="1389.8437"/><line style="stroke:#FFA500;stroke-width:3.125;stroke-dasharray:4.0,4.0;" x1="764.0625" x2="764.0625" y1="15.625" y2="1389.8437"/><!--SRC=[dPPDRnen48Rl_XKZScaLKLZRq40HMWcQ12af1qkfUjo02nPc5-r7MnJbltU_RDpiGA07fDNCw_VnZCVB9XiLxe8usC9ofy3hTKboYCYVGQRJsoXClmLR2QrPbCXVcm0cMQptBP8i0Yt1Wo21NXTswe_K2I6Z9DrhEIQfsgfmDLN1gl1w8G2VddKcooU01nNAIQIZ6Avehy_aSnvzBJInN3ObomNjqxwHx5IuQMhaWjyC1gNcbOmwzIv873rdIGgjoVpHQnLRdNWm6XKx6O_T9AsI54soAidG9A-Il9aKN-_AdCXJULt_PjfsHwBSKb5LKq5h1JsgOBM27LNmMi4F2f8Zrtcm1N3zLARlPtVtDdhzrAd0ZxEf8uLk6NoOVyyDA6f0CGEA6Z3KW64633NWg07733Xc8B3r9cZN2dGftZ-1Db2W7RJHjj5ktuZRbVEsj2O2xxX0MoxGdjleMoGzXcGuag58XY8PZcJ7a1n7SXJ9KIJ7aHn7-jrYn9MTLMM7JjdfKMOMrE7mbDC-vTIb7A1v9hvNGymrkOHY3_fz3AqnnV8pA7PgbJDEwd2Wwj3e-f7uhD4kStFVPpZzCjE18NW3KTPpuOau1AHJlHEdRjuaPvJXTCeCdosZVm9H5dJnO3c8kepFPmrl_MexgmodLUMxphyv2r5kxJ_kHyKON7Wzt3BCg-tqt0e__vTjZy4V3E4sqnec-uMMXOT9C1Zc7nGfVF0w7APPklz8o5gjrZh_fVbtJXh10Av-IAsZtrzq_kKndCT1k9BaBm00]--></g></svg>